PathFileType	4	(X/Y/Z)	C:/Users/opensim2020/Desktop/walking_exp_matlab/subject03_walking10_straight_03.trc																																																																																																																																					
DataRate	CameraRate	NumFrames	NumMarkers	Units	OrigDataRate	OrigDataStartFrame	OrigNumFrames																																																																																																																																	
100	100	4	45	mm	100	2738	417																																																																																																																																	
Frame#	Time	LFHD			RFHD			LBHD			RBHD			C7			T10			CLAV			STRN			RBAK			LSHO			LUPA			LELB			LFRM			LWRA			LWRB			LFIN			RSHO			RUPA			RELB			RFRM			RWRA			RWRB			RFIN			LASI			RASI			LPSI			RPSI			LTHI			LKNE			LTIB			LANK			LHEE			LTOE			RTHI			RKNE			RTIB			RANK			RHEE			RTOE			*39			*40			*41			*42			*43			*44		
		X1	Y1	Z1	X2	Y2	Z2	X3	Y3	Z3	X4	Y4	Z4	X5	Y5	Z5	X6	Y6	Z6	X7	Y7	Z7	X8	Y8	Z8	X9	Y9	Z9	X10	Y10	Z10	X11	Y11	Z11	X12	Y12	Z12	X13	Y13	Z13	X14	Y14	Z14	X15	Y15	Z15	X16	Y16	Z16	X17	Y17	Z17	X18	Y18	Z18	X19	Y19	Z19	X20	Y20	Z20	X21	Y21	Z21	X22	Y22	Z22	X23	Y23	Z23	X24	Y24	Z24	X25	Y25	Z25	X26	Y26	Z26	X27	Y27	Z27	X28	Y28	Z28	X29	Y29	Z29	X30	Y30	Z30	X31	Y31	Z31	X32	Y32	Z32	X33	Y33	Z33	X34	Y34	Z34	X35	Y35	Z35	X36	Y36	Z36	X37	Y37	Z37	X38	Y38	Z38	X39	Y39	Z39	X40	Y40	Z40	X41	Y41	Z41	X42	Y42	Z42	X43	Y43	Z43	X44	Y44	Z44	X45	Y45	Z45
																																																																																																																																								
1	0	-1193.19519	1632.33337	1337.51868	-1182.37854	1641.05212	1469.32739	-1312.96606	1572.17102	1353.97375	-1298.62878	1581.35999	1483.74146	-1327.57336	1425.68762	1411.21985	-1365.20044	1114.57019	1418.47375	-1204.01611	1349.92712	1408.34412	-1162.23218	1184.31995	1406.67542	-1376.25049	1255.60364	1514.86536	-1257.14026	1385.21912	1254.05737	-1275.95642	1190.76282	1179.41492	-1271.39331	1068.83813	1159.78516	-1244.20105	941.72974	1150.12805	-1222.09583	822.15509	1171.75195	-1249.49768	830.26337	1123.85278	-1233.86279	746.22461	1127.53992	-1242.375	1378.34192	1569.03955	-1233.00391	1160.06006	1651.3092	-1213.53442	1049.60486	1668.71423	-1188.91248	914.99054	1675.95508	-1154.03992	820.28259	1643.31128	-1184.14844	814.77905	1687.68799	-1158.13416	745.13397	1680.47339	-1204.12329	946.93591	1304.84778	-1206.99878	944.38043	1539.87427	-1365.32947	977.20532	1351.64404	-1365.22986	982.31293	1501.47693	-1249.63953	647.29767	1267.54443	-1227.66028	471.83908	1312.07605	-1262.15405	279.63007	1310.2041	-1259.44495	69.6291	1353.26917	-1298.65881	34.74528	1388.39258	-1106.35815	35.4443	1386.60693	-1281.5365	648.4361	1595.38306	-1279.46082	467.33139	1577.35718	-1414.61365	327.88428	1588.80859	-1557.8512	162.25768	1551.74536	-1610.86084	166.81697	1500.88257	-1481.50366	40.53897	1518.12061	NaN	NaN	NaN	NaN	NaN	NaN	NaN	NaN	NaN	NaN	NaN	NaN	NaN	NaN	NaN	NaN	NaN	NaN
2	0.01	-1187.89905	1632.37622	1336.58508	-1177.59998	1641.10461	1468.51453	-1307.78149	1572.34717	1352.60352	-1293.85693	1581.3855	1482.48206	-1322.47266	1425.65271	1409.33691	-1359.99951	1114.547	1417.04297	-1196.76538	1350.91235	1407.32959	-1156.98779	1184.30078	1406.1449	-1371.75146	1255.49365	1512.64795	-1250.74451	1384.87793	1252.84705	-1266.64026	1190.86987	1176.91687	-1259.62659	1069.10376	1156.75806	-1231.34192	942.27747	1146.42493	-1209.09619	822.64142	1167.54504	-1235.36475	831.05292	1118.97913	-1219.67993	746.85101	1122.401	-1238.18445	1378.35742	1567.87695	-1229.66174	1160.31738	1650.68103	-1210.18164	1050.00928	1668.52625	-1185.16248	915.4187	1675.90344	-1149.70337	820.9516	1643.48108	-1180.04224	815.31891	1687.74854	-1153.73743	745.8172	1680.59619	-1198.51074	947.30115	1304.09265	-1202.12231	944.51129	1539.3562	-1360.09009	977.21716	1350.90381	-1360.40198	981.57159	1500.52625	-1244.60388	647.62421	1266.75171	-1224.78406	472.01425	1311.37244	-1260.63049	279.73175	1309.58215	-1259.56628	69.61768	1352.84485	-1298.80847	34.77184	1388.14465	-1106.51221	35.35323	1386.59363	-1272.36829	647.88806	1595.13965	-1266.87512	466.86591	1577.39795	-1402.98132	328.81891	1588.69189	-1548.62732	165.78008	1551.46265	-1601.6239	170.23282	1500.14075	-1472.80286	43.47172	1520.27539	NaN	NaN	NaN	NaN	NaN	NaN	NaN	NaN	NaN	NaN	NaN	NaN	NaN	NaN	NaN	NaN	NaN	NaN
3	0.02	-1182.74329	1632.49976	1335.70264	-1172.74146	1641.10364	1467.61377	-1302.58252	1572.40869	1351.30444	-1289.09387	1581.38428	1481.15369	-1317.31238	1425.52173	1407.46997	-1354.90942	1114.49902	1415.76282	-1191.70081	1350.77722	1406.4187	-1151.98511	1184.07446	1405.65405	-1367.38721	1255.43201	1510.48059	-1244.47034	1384.45715	1251.6416	-1256.43091	1190.77039	1174.90564	-1247.90356	1069.38354	1153.88855	-1218.33154	943.026	1143.047	-1195.97156	822.98322	1163.26965	-1221.09851	831.88751	1114.3197	-1205.1427	747.70911	1117.20142	-1234.2373	1378.26501	1566.69983	-1226.3407	1160.53357	1650.09192	-1206.94714	1050.17542	1668.16138	-1181.45374	915.75507	1675.69702	-1145.51758	821.5191	1643.49438	-1176.02283	815.6283	1687.521	-1149.03723	746.48547	1680.38818	-1193.08069	947.48438	1303.47485	-1197.33044	944.5144	1538.9248	-1354.99219	977.2298	1350.17749	-1355.6217	980.74548	1499.74084	-1239.73865	647.79785	1266.00525	-1221.33521	471.9371	1310.55396	-1258.91919	279.69443	1309.34155	-1259.55396	69.5798	1352.52136	-1298.85254	34.72829	1387.9115	-1106.59375	35.31685	1386.4989	-1263.51831	647.47168	1594.4071	-1254.43481	466.68164	1577.31238	-1391.5918	330.1702	1588.27124	-1538.69153	168.90375	1550.9541	-1591.81189	172.64178	1499.29492	-1462.59875	46.57304	1522.46729	NaN	NaN	NaN	NaN	NaN	NaN	NaN	NaN	NaN	NaN	NaN	NaN	NaN	NaN	NaN	NaN	NaN	NaN
4	0.03	-1177.41272	1632.51563	1334.79761	-1167.93469	1641.10107	1466.72644	-1297.26575	1572.39404	1349.97131	-1284.28125	1581.34802	1479.91553	-1312.18176	1425.62561	1405.81665	-1349.92883	1114.49487	1414.64771	-1186.63794	1350.62732	1405.58887	-1146.97339	1183.86499	1405.37463	-1363.05774	1255.43726	1508.47314	-1238.27014	1383.95789	1250.56104	-1247.1272	1190.80444	1172.76404	-1236.24646	1069.67578	1151.18823	-1205.41064	943.54639	1139.75244	-1182.50964	823.7207	1159.42236	-1206.71729	832.8288	1109.90601	-1190.26086	748.75604	1112.23999	-1230.28918	1378.23108	1565.64709	-1223.078	1160.54919	1649.47388	-1203.68921	1050.35144	1667.69299	-1177.79919	915.99121	1675.39868	-1141.28308	821.97144	1643.26172	-1172.00708	815.93323	1687.24756	-1144.41479	747.02661	1680.31433	-1187.72144	947.62555	1302.8175	-1192.52893	944.50061	1538.57629	-1349.85547	977.14423	1349.47253	-1350.81836	979.94666	1498.90637	-1235.14722	648.1095	1265.42883	-1218.3075	471.86203	1309.91272	-1257.52271	279.87805	1308.51294	-1259.81018	69.80598	1352.27307	-1298.89966	34.74225	1387.73279	-1106.67615	35.23111	1386.45496	-1254.8573	647.32782	1594.05469	-1242.1416	466.75983	1577.29785	-1380.00708	331.44177	1587.75708	-1528.10864	171.40331	1550.44409	-1581.18579	174.19449	1498.23474	-1451.01685	49.7747	1525.33948	NaN	NaN	NaN	NaN	NaN	NaN	NaN	NaN	NaN	NaN	NaN	NaN	NaN	NaN	NaN	NaN	NaN	NaN
